<?xml version="1.0" encoding="UTF-8" ?>
<!DOCTYPE svg PUBLIC "-//W3C//DTD SVG 1.1//EN" "http://www.w3.org/Graphics/SVG/1.1/DTD/svg11.dtd">
<svg width="1250pt" height="500pt" viewBox="0 0 1250 500" version="1.1" xmlns="http://www.w3.org/2000/svg">
<g id="#eeeeeeff">
<path fill="#eeeeee" opacity="1.00" d=" M 1082.71 82.80 C 1083.57 79.81 1086.22 77.93 1089.38 78.41 C 1090.49 79.47 1091.57 80.56 1092.62 81.70 C 1092.59 98.52 1092.58 115.34 1092.62 132.16 C 1096.14 133.33 1099.52 135.30 1101.84 138.25 C 1103.23 140.23 1104.37 142.38 1105.24 144.64 C 1105.73 147.83 1105.73 151.08 1105.28 154.28 C 1104.59 156.01 1103.74 157.68 1102.85 159.32 C 1101.66 160.98 1100.28 162.50 1098.75 163.83 C 1091.51 169.46 1080.43 168.41 1074.38 161.53 C 1073.40 160.52 1072.62 159.34 1072.00 158.11 C 1070.06 153.84 1069.09 149.10 1070.46 144.51 C 1072.18 138.71 1076.93 133.94 1082.75 132.24 C 1082.78 115.76 1082.85 99.28 1082.71 82.80 M 1082.48 138.68 C 1078.51 140.51 1075.93 144.73 1075.66 149.03 C 1075.38 155.31 1080.64 161.29 1086.98 161.55 C 1093.79 162.19 1100.38 155.88 1099.73 149.00 C 1099.88 140.69 1089.76 134.61 1082.48 138.68 Z" />
</g>
<g id="#e0f5fbff">
<path fill="#e0f5fb" opacity="1.00" d=" M 947.45 111.60 C 964.13 111.75 980.82 111.51 997.50 111.72 C 1000.65 112.14 1000.29 115.97 1000.32 118.31 C 1000.06 118.78 999.54 119.73 999.28 120.21 C 998.79 120.52 997.81 121.15 997.32 121.46 C 996.67 121.44 995.37 121.39 994.71 121.37 L 994.21 121.36 C 994.36 124.98 994.31 128.63 993.82 132.23 C 991.34 132.29 987.69 131.40 986.57 134.38 C 986.02 139.53 986.51 144.75 986.36 149.93 C 986.50 154.45 985.96 159.02 986.65 163.50 C 988.11 166.35 991.68 165.44 994.29 165.57 C 994.53 170.66 994.18 175.76 994.48 180.84 C 995.53 183.59 997.04 186.15 998.29 188.81 C 998.53 189.32 999.01 190.34 999.25 190.85 C 1001.04 194.63 1003.04 198.32 1004.75 202.15 C 1005.22 203.07 1005.69 203.99 1006.18 204.92 C 1007.10 206.96 1008.11 208.96 1009.16 210.95 C 1009.65 212.05 1010.17 213.16 1010.70 214.26 C 1014.30 221.41 1017.75 228.63 1021.28 235.81 C 1023.24 239.85 1025.26 243.85 1027.19 247.91 C 1028.13 249.94 1029.14 251.94 1030.17 253.94 C 1031.01 255.69 1031.88 257.43 1032.73 259.19 C 1033.52 260.78 1034.32 262.37 1035.14 263.95 C 1039.34 273.00 1043.93 281.87 1048.27 290.86 C 1049.37 293.27 1050.66 295.60 1051.74 298.04 C 1052.43 299.39 1053.13 300.75 1053.79 302.13 C 1054.03 302.63 1054.51 303.64 1054.75 304.14 C 1055.43 305.46 1056.07 306.79 1056.70 308.15 C 1057.25 309.36 1057.79 310.57 1058.37 311.78 C 1059.51 317.97 1054.82 325.52 1048.04 324.98 C 997.67 324.98 947.30 325.02 896.93 324.96 C 891.64 325.31 888.67 320.34 886.61 316.26 C 886.57 314.66 886.55 313.06 886.55 311.46 L 887.27 311.38 C 888.06 309.54 888.95 307.74 889.85 305.94 C 890.89 303.97 891.88 301.96 892.81 299.93 C 894.31 297.00 895.64 293.98 897.17 291.06 C 900.90 282.94 905.05 275.02 908.86 266.94 C 909.51 265.60 910.15 264.25 910.82 262.91 C 911.49 261.61 912.14 260.29 912.74 258.95 C 914.21 255.98 915.61 252.98 917.14 250.04 C 920.90 241.93 924.98 233.97 928.83 225.90 C 929.50 224.60 930.15 223.29 930.73 221.94 C 931.74 219.91 932.78 217.90 933.75 215.84 C 938.05 206.85 942.48 197.92 946.81 188.93 C 947.06 188.42 947.56 187.41 947.81 186.90 C 948.93 184.37 950.90 182.00 950.72 179.09 C 950.63 174.64 950.93 170.17 950.47 165.74 C 952.69 165.60 954.93 165.63 957.15 165.31 L 957.95 165.25 C 959.42 159.29 958.48 153.09 958.73 147.03 C 958.51 142.63 959.27 138.12 958.31 133.81 C 958.02 133.45 957.43 132.75 957.14 132.40 C 955.15 132.21 953.15 132.18 951.18 132.12 C 951.16 128.69 951.26 125.25 951.20 121.82 L 950.38 121.48 C 949.69 121.45 948.31 121.40 947.62 121.37 C 944.44 119.33 944.39 113.74 947.45 111.60 M 951.46 121.69 C 951.59 123.15 951.74 124.61 951.90 126.07 C 965.69 126.57 979.50 126.20 993.30 126.23 C 993.50 124.69 993.70 123.15 993.88 121.62 C 988.28 121.09 982.66 121.40 977.06 121.32 C 968.53 121.56 959.96 120.91 951.46 121.69 M 964.30 208.07 C 963.66 209.55 965.22 210.50 966.03 211.46 C 966.68 211.16 967.98 210.57 968.64 210.27 C 968.62 209.73 968.59 208.66 968.58 208.12 C 968.64 205.76 964.40 205.79 964.30 208.07 M 977.45 206.58 C 973.58 207.96 971.25 211.75 970.76 215.70 C 967.76 215.67 964.78 215.67 961.80 215.67 C 960.94 213.60 959.66 210.96 956.97 211.29 C 954.39 211.12 953.17 213.75 952.22 215.68 C 950.11 215.68 948.01 215.67 945.92 215.68 C 931.17 245.95 916.45 276.23 901.72 306.50 C 899.76 310.14 902.99 314.55 907.00 314.14 C 950.66 314.14 994.31 314.07 1037.98 314.16 C 1042.00 314.75 1046.08 310.25 1043.75 306.46 C 1028.89 276.20 1014.20 245.84 999.20 215.65 C 996.26 215.69 993.32 215.69 990.40 215.61 C 989.84 212.90 989.10 209.97 986.72 208.27 C 984.25 205.96 980.55 205.80 977.45 206.58 Z" />
</g>
<g id="#e0e0dfff">
<path fill="#e0e0df" opacity="1.00" d=" M 951.46 121.69 C 959.96 120.91 968.53 121.56 977.06 121.32 C 982.66 121.40 988.28 121.09 993.88 121.62 C 993.70 123.15 993.50 124.69 993.30 126.23 C 979.50 126.20 965.69 126.57 951.90 126.07 C 951.74 124.61 951.59 123.15 951.46 121.69 Z" />
</g>
<g id="#3c444b77">
<path fill="#3c444b" opacity="0.47" d=" M 994.21 121.36 L 994.71 121.37 C 994.42 124.81 994.50 128.26 994.92 131.69 C 997.73 131.93 1002.19 130.45 1002.95 134.38 C 1005.83 134.96 1009.95 133.38 1011.93 136.20 C 1009.69 135.55 1007.37 135.23 1005.05 135.27 C 1004.36 135.28 1002.97 135.32 1002.28 135.33 C 1001.95 134.34 1001.62 133.36 1001.28 132.38 C 998.78 132.39 996.30 132.35 993.82 132.23 C 994.31 128.63 994.36 124.98 994.21 121.36 Z" />
</g>
<g id="#3e485088">
<path fill="#3e4850" opacity="0.53" d=" M 950.38 121.48 L 951.20 121.82 C 951.26 125.25 951.16 128.69 951.18 132.12 C 953.15 132.18 955.15 132.21 957.14 132.40 C 952.66 132.07 948.18 132.43 943.71 132.53 C 943.42 133.45 943.15 134.37 942.91 135.30 C 939.86 135.30 936.80 135.36 933.77 135.62 C 936.28 134.06 939.32 134.63 942.13 134.53 C 942.64 133.59 943.17 132.66 943.70 131.72 C 945.90 131.73 948.09 131.73 950.30 131.72 C 950.23 128.31 950.26 124.89 950.38 121.48 Z" />
</g>
<g id="#45586bff">
<path fill="#45586b" opacity="1.00" d=" M 986.57 134.38 C 987.69 131.40 991.34 132.29 993.82 132.23 C 996.30 132.35 998.78 132.39 1001.28 132.38 C 1001.62 133.36 1001.95 134.34 1002.28 135.33 C 1002.44 144.37 1002.30 153.42 1002.35 162.46 C 1002.33 163.18 1002.29 164.60 1002.27 165.31 C 999.60 165.46 996.94 165.52 994.29 165.57 C 991.68 165.44 988.11 166.35 986.65 163.50 C 985.96 159.02 986.50 154.45 986.36 149.93 C 986.51 144.75 986.02 139.53 986.57 134.38 Z" />
<path fill="#45586b" opacity="1.00" d=" M 943.71 132.53 C 948.18 132.43 952.66 132.07 957.14 132.40 C 957.43 132.75 958.02 133.45 958.31 133.81 C 959.27 138.12 958.51 142.63 958.73 147.03 C 958.48 153.09 959.42 159.29 957.95 165.25 L 957.15 165.31 C 952.61 165.08 948.08 165.45 943.55 165.60 C 943.09 164.60 942.81 163.57 942.71 162.50 C 942.87 153.43 942.49 144.36 942.91 135.30 C 943.15 134.37 943.42 133.45 943.71 132.53 Z" />
</g>
<g id="#ffffffff">
<path fill="#ffffff" opacity="1.00" d=" M 73.08 139.12 C 89.78 133.30 108.08 133.86 125.11 137.90 C 127.39 138.60 129.68 139.27 131.93 140.09 C 141.93 144.21 151.23 150.02 159.37 157.14 L 159.50 158.00 C 154.63 163.51 149.83 169.08 145.01 174.63 C 138.70 168.40 131.14 163.46 122.95 160.06 C 120.67 159.27 118.35 158.60 116.04 157.92 C 104.82 155.53 92.85 154.91 81.87 158.77 C 68.68 163.26 57.89 174.98 55.59 188.86 C 54.88 195.59 54.95 202.79 58.29 208.88 C 63.19 218.89 72.87 225.47 82.77 229.93 C 91.06 233.59 99.52 236.86 107.92 240.28 C 123.61 246.53 140.02 252.69 152.56 264.41 C 162.93 273.77 169.80 287.08 170.85 301.06 C 172.97 317.58 168.18 334.79 158.04 347.99 C 149.72 359.04 137.86 367.26 124.84 371.80 C 105.92 378.61 85.04 377.55 65.92 372.14 C 54.27 368.70 43.17 363.15 33.83 355.35 C 28.52 351.09 23.98 345.99 19.46 340.92 C 25.29 335.89 31.25 331.01 37.07 325.98 C 45.73 336.91 57.11 345.77 70.14 350.86 C 71.36 351.31 72.58 351.75 73.80 352.23 C 88.76 356.73 105.53 357.66 120.09 351.25 C 130.88 346.36 139.85 337.29 143.88 326.08 C 147.50 316.14 148.04 304.83 144.31 294.85 C 139.39 283.54 129.07 275.72 118.07 270.82 C 110.83 267.51 103.43 264.61 96.01 261.73 C 87.19 258.47 78.40 255.08 69.82 251.21 C 69.32 250.98 68.34 250.50 67.84 250.26 C 53.17 243.54 40.10 232.14 34.18 216.84 C 29.26 203.77 29.20 188.96 33.76 175.78 C 40.39 158.34 55.61 145.08 73.08 139.12 Z" />
<path fill="#ffffff" opacity="1.00" d=" M 312.69 134.76 C 321.20 135.21 329.70 136.11 338.04 137.95 C 339.37 138.31 340.72 138.58 342.07 138.89 C 364.69 144.80 385.53 157.55 400.88 175.20 C 409.77 185.52 416.88 197.39 421.79 210.09 C 425.26 219.11 427.79 228.51 428.98 238.11 C 429.73 242.06 429.66 246.10 429.89 250.10 C 430.56 254.34 430.25 258.65 429.83 262.91 C 429.47 276.96 426.12 290.85 420.81 303.83 C 413.15 322.26 400.95 338.87 385.26 351.25 C 374.12 360.00 361.35 366.69 347.82 370.86 C 343.66 372.21 339.39 373.09 335.14 374.09 C 327.71 375.34 320.23 376.46 312.68 376.55 C 312.69 369.55 312.68 362.56 312.68 355.56 C 322.20 355.16 331.72 353.76 340.80 350.83 C 362.35 343.92 381.11 328.73 392.16 308.96 C 406.95 283.22 409.04 251.38 400.89 223.13 C 394.95 203.30 382.82 185.15 365.85 173.12 C 357.64 167.40 348.57 162.84 338.95 160.02 C 336.03 159.22 333.08 158.58 330.14 157.87 C 324.34 156.67 318.38 156.73 312.59 155.62 C 312.80 148.67 312.63 141.71 312.69 134.76 Z" />
<path fill="#ffffff" opacity="1.00" d=" M 281.94 137.92 C 288.08 136.68 294.26 135.55 300.53 135.22 C 300.52 142.27 300.55 149.32 300.51 156.38 C 294.18 156.81 287.97 158.18 281.84 159.77 C 255.53 167.97 233.17 187.75 222.22 213.09 C 216.79 225.30 213.18 238.52 213.20 251.95 C 213.20 258.59 212.92 265.31 214.08 271.88 C 217.51 295.25 229.32 317.47 247.27 332.92 C 256.83 341.05 267.99 347.26 279.89 351.23 C 280.46 351.37 281.61 351.65 282.19 351.79 C 283.74 352.25 285.33 352.65 286.89 353.11 C 291.41 354.04 295.97 354.71 300.55 355.30 C 300.50 362.31 300.55 369.32 300.52 376.33 C 293.60 375.55 286.68 374.70 279.90 373.08 C 278.59 372.71 277.25 372.41 275.93 372.10 C 250.68 365.18 227.76 349.79 212.21 328.67 C 202.83 315.93 195.75 301.41 191.94 286.04 C 185.42 258.42 187.87 228.34 200.87 202.93 C 215.22 173.02 242.43 149.86 274.06 140.03 C 276.67 139.26 279.31 138.63 281.94 137.92 Z" />
<path fill="#ffffff" opacity="1.00" d=" M 468.38 138.31 C 516.40 138.29 564.42 138.26 612.44 138.32 C 612.35 145.32 612.47 152.31 612.37 159.30 C 564.35 159.28 516.34 159.27 468.32 159.31 C 468.22 152.31 468.39 145.31 468.38 138.31 Z" />
<path fill="#ffffff" opacity="1.00" d=" M 614.90 138.33 C 664.68 138.29 714.46 138.23 764.24 138.35 C 764.11 145.27 764.40 152.19 764.10 159.09 C 741.41 159.65 718.65 158.92 695.95 159.50 C 669.03 159.30 642.11 159.19 615.19 159.33 C 615.00 155.55 615.12 151.78 615.09 148.00 C 615.13 144.77 614.89 141.55 614.90 138.33 Z" />
<path fill="#ffffff" opacity="1.00" d=" M 443.50 375.20 C 443.49 296.34 443.51 217.48 443.49 138.61 C 450.05 138.61 456.62 138.55 463.18 138.65 C 463.00 149.43 463.51 160.24 462.92 171.00 C 463.48 183.97 463.03 196.98 463.18 209.97 C 463.17 243.31 463.16 276.65 463.18 309.99 C 463.19 312.66 463.28 315.34 462.93 318.00 C 463.32 327.65 463.37 337.37 462.90 347.02 C 463.23 348.34 463.23 349.66 462.90 350.98 C 463.31 353.63 463.26 356.33 463.00 359.00 C 462.60 362.33 463.64 365.68 462.91 369.00 C 463.12 370.88 463.22 372.77 463.34 374.67 C 456.83 375.87 450.10 374.88 443.50 375.20 Z" />
<path fill="#ffffff" opacity="1.00" d=" M 677.50 165.03 C 685.59 164.68 693.70 164.97 701.80 164.87 C 701.84 168.24 701.68 171.62 702.01 174.99 C 701.75 176.98 701.67 179.01 702.11 180.99 C 701.62 186.96 701.63 193.03 702.10 199.00 C 701.74 201.03 701.75 203.09 701.87 205.14 C 702.10 206.38 702.10 207.62 701.87 208.85 C 701.74 239.89 701.85 270.94 701.82 301.98 C 701.99 311.31 701.45 320.69 702.10 330.00 C 701.45 337.97 701.99 346.00 701.82 354.00 C 701.97 360.43 701.46 366.89 702.15 373.29 C 693.93 373.39 685.71 373.32 677.50 373.34 C 677.53 303.90 677.54 234.47 677.50 165.03 Z" />
<path fill="#ffffff" opacity="1.00" d=" M 468.57 242.51 C 511.92 242.53 555.28 242.55 598.64 242.50 C 598.70 249.51 598.64 256.52 598.68 263.53 C 555.30 263.51 511.92 263.53 468.54 263.52 C 468.57 256.52 468.53 249.51 468.57 242.51 Z" />
<path fill="#ffffff" opacity="1.00" d=" M 923.13 375.17 C 923.57 375.18 924.45 375.20 924.88 375.21 C 924.92 381.79 924.91 388.37 924.89 394.95 C 924.44 394.95 923.55 394.95 923.11 394.95 C 923.09 388.35 923.05 381.76 923.13 375.17 Z" />
<path fill="#ffffff" opacity="1.00" d=" M 1051.91 376.02 C 1056.52 372.06 1064.60 376.63 1063.23 382.68 C 1060.83 381.94 1061.48 378.74 1059.52 377.55 C 1056.81 375.27 1052.22 376.65 1051.20 380.01 C 1050.59 383.16 1050.99 386.39 1050.95 389.58 C 1053.36 390.15 1057.77 388.02 1058.50 391.26 C 1054.21 391.51 1049.92 391.42 1045.64 391.34 C 1045.86 389.66 1046.99 389.05 1049.01 389.49 C 1049.43 384.99 1047.67 379.18 1051.91 376.02 Z" />
<path fill="#ffffff" opacity="1.00" d=" M 621.43 376.18 C 628.81 375.78 636.06 379.88 640.12 385.97 C 644.47 392.32 645.12 400.96 641.86 407.93 C 638.56 415.23 631.07 420.50 623.04 420.87 C 618.06 421.02 613.07 420.93 608.10 420.89 C 608.03 412.16 608.04 403.42 608.09 394.69 C 608.52 394.78 609.39 394.96 609.82 395.05 C 610.03 403.06 609.84 411.08 609.91 419.09 C 614.62 419.01 619.36 419.28 624.07 418.93 C 632.84 418.01 640.34 410.73 641.76 402.07 C 643.34 393.87 639.25 385.03 632.07 380.82 C 628.77 378.70 624.84 378.05 621.01 377.68 C 621.11 377.31 621.32 376.55 621.43 376.18 Z" />
<path fill="#ffffff" opacity="1.00" d=" M 822.09 377.93 C 822.37 377.42 822.91 376.40 823.19 375.89 C 824.16 377.80 823.89 379.96 823.92 382.03 C 823.86 394.98 823.95 407.93 823.87 420.88 C 823.43 420.88 822.53 420.87 822.09 420.87 C 822.05 406.56 822.02 392.24 822.09 377.93 Z" />
<path fill="#ffffff" opacity="1.00" d=" M 1070.21 384.03 C 1070.60 384.13 1071.36 384.34 1071.74 384.45 C 1072.27 395.29 1071.67 406.19 1072.02 417.05 C 1071.98 419.49 1075.99 418.91 1075.86 421.49 C 1073.27 421.57 1070.23 419.98 1070.12 417.13 C 1069.96 408.75 1070.11 400.37 1070.06 391.99 C 1069.28 391.94 1067.72 391.84 1066.94 391.79 C 1064.84 389.90 1068.88 389.92 1070.03 389.98 C 1070.04 387.99 1070.07 386.00 1070.21 384.03 Z" />
<path fill="#ffffff" opacity="1.00" d=" M 752.53 394.99 C 753.74 390.74 758.33 388.67 762.47 389.60 C 762.34 390.25 762.22 390.89 762.11 391.54 C 758.86 390.80 755.94 392.28 754.18 394.97 L 752.53 394.99 Z" />
<path fill="#ffffff" opacity="1.00" d=" M 773.90 391.80 C 775.82 389.55 778.93 389.31 781.69 389.47 C 781.74 389.96 781.83 390.96 781.88 391.46 C 778.52 390.89 775.36 392.15 773.65 395.14 C 770.93 395.05 773.00 392.84 773.90 391.80 Z" />
<path fill="#ffffff" opacity="1.00" d=" M 1181.17 394.31 C 1182.72 390.54 1186.87 388.87 1190.73 389.49 C 1190.76 389.98 1190.83 390.97 1190.86 391.46 C 1187.50 390.88 1184.38 392.16 1182.65 395.12 C 1182.28 394.92 1181.54 394.51 1181.17 394.31 Z" />
<path fill="#ffffff" opacity="1.00" d=" M 651.08 405.00 C 651.10 395.99 659.92 388.34 668.86 389.68 C 677.05 390.44 683.31 398.23 683.03 406.33 C 675.40 406.42 667.75 406.53 660.13 406.29 L 659.34 404.79 C 666.59 404.36 673.86 404.69 681.12 404.60 C 680.63 397.10 673.65 390.73 666.07 391.44 C 658.31 391.75 651.92 399.38 653.00 407.07 C 653.59 412.92 658.28 418.20 664.13 419.17 C 665.41 419.74 667.93 419.05 667.70 421.35 C 658.75 422.11 650.52 413.93 651.08 405.00 Z" />
<path fill="#ffffff" opacity="1.00" d=" M 690.58 394.03 C 692.22 389.54 698.37 388.19 701.99 391.18 C 701.79 391.56 701.39 392.31 701.19 392.68 C 698.52 391.05 694.59 390.80 692.79 393.80 C 690.78 396.54 692.51 399.89 694.80 401.77 C 694.36 402.19 693.91 402.62 693.48 403.05 C 690.90 400.90 689.07 397.36 690.58 394.03 Z" />
<path fill="#ffffff" opacity="1.00" d=" M 710.63 404.09 C 711.16 395.95 718.77 389.15 726.92 389.57 C 735.10 389.60 742.40 396.84 742.38 405.04 C 742.36 410.27 742.58 415.52 742.26 420.74 L 740.70 421.16 C 740.56 418.46 740.56 415.75 740.65 413.06 C 737.35 418.76 730.63 422.42 724.02 421.22 C 715.97 420.16 709.70 412.17 710.63 404.09 M 723.51 391.73 C 716.64 393.08 711.56 400.11 712.50 407.06 C 713.16 414.47 720.49 420.41 727.89 419.48 C 735.73 418.88 741.95 410.82 740.36 403.08 C 739.20 395.45 731.03 389.89 723.51 391.73 Z" />
<path fill="#ffffff" opacity="1.00" d=" M 740.59 389.97 C 743.46 389.09 743.32 396.13 740.67 394.80 C 740.53 393.19 740.57 391.58 740.59 389.97 Z" />
<path fill="#ffffff" opacity="1.00" d=" M 769.10 390.10 C 769.55 390.11 770.44 390.13 770.88 390.14 C 770.91 400.39 770.94 410.65 770.87 420.90 C 770.42 420.89 769.53 420.87 769.09 420.87 C 769.05 410.61 769.02 400.35 769.10 390.10 Z" />
<path fill="#ffffff" opacity="1.00" d=" M 793.38 390.58 C 802.32 386.86 813.40 393.28 814.69 402.84 C 816.42 411.49 809.63 420.52 800.87 421.30 C 792.35 422.56 783.80 415.72 783.15 407.15 C 782.30 400.14 786.75 392.97 793.38 390.58 M 796.51 391.63 C 789.05 392.79 783.54 400.68 785.16 408.09 C 786.39 415.64 794.55 421.09 802.01 419.22 C 809.23 417.81 814.40 410.07 812.82 402.86 C 811.60 395.49 803.83 390.13 796.51 391.63 Z" />
<path fill="#ffffff" opacity="1.00" d=" M 851.11 390.17 C 859.57 387.49 869.35 393.34 871.03 402.03 C 873.12 410.31 867.29 419.42 858.93 421.04 C 850.68 423.09 841.59 417.33 839.95 409.00 C 837.96 401.04 843.20 392.26 851.11 390.17 M 852.51 391.73 C 845.35 393.12 840.21 400.69 841.61 407.86 C 842.71 415.30 850.52 420.84 857.92 419.34 C 865.34 418.22 870.86 410.44 869.36 403.06 C 868.22 395.42 860.03 389.89 852.51 391.73 Z" />
<path fill="#ffffff" opacity="1.00" d=" M 903.40 390.59 C 912.08 387.04 922.83 392.89 924.56 402.09 C 926.75 410.91 919.94 420.49 910.90 421.32 C 902.34 422.60 893.76 415.67 893.15 407.06 C 892.32 400.07 896.78 392.95 903.40 390.59 M 903.39 392.61 C 896.86 395.30 893.21 403.30 895.64 409.97 C 897.81 417.01 906.05 421.31 913.06 418.98 C 920.57 416.93 925.10 408.00 922.23 400.73 C 919.74 393.31 910.51 389.27 903.39 392.61 Z" />
<path fill="#ffffff" opacity="1.00" d=" M 931.58 405.04 C 931.59 396.20 940.06 388.60 948.86 389.63 C 957.22 390.14 963.97 398.07 963.45 406.39 C 955.71 406.41 947.98 406.45 940.25 406.36 C 940.25 405.93 940.26 405.06 940.27 404.63 C 947.41 404.52 954.55 404.66 961.70 404.56 C 961.03 396.93 953.87 390.49 946.12 391.48 C 937.84 392.04 931.53 400.95 933.84 408.95 C 935.28 415.25 941.35 419.39 947.60 419.78 C 947.78 420.16 948.14 420.94 948.32 421.32 C 939.35 422.19 931.02 413.99 931.58 405.04 Z" />
<path fill="#ffffff" opacity="1.00" d=" M 989.58 394.02 C 991.24 389.55 997.31 388.23 1000.96 391.13 C 1000.82 391.57 1000.53 392.46 1000.39 392.90 C 997.63 390.72 993.05 390.91 991.47 394.36 C 989.90 397.10 991.76 399.98 993.82 401.79 C 993.35 402.20 992.90 402.62 992.46 403.03 C 989.89 400.88 988.07 397.35 989.58 394.02 Z" />
<path fill="#ffffff" opacity="1.00" d=" M 1020.36 390.59 C 1029.30 386.86 1040.38 393.26 1041.69 402.82 C 1043.52 411.82 1036.09 421.12 1026.94 421.39 C 1018.28 422.15 1010.09 414.67 1010.08 405.99 C 1009.77 399.35 1014.12 392.86 1020.36 390.59 M 1023.46 391.63 C 1016.38 392.78 1011.00 399.97 1012.01 407.10 C 1012.69 414.66 1020.33 420.64 1027.86 419.42 C 1035.21 418.61 1041.01 411.25 1039.98 403.90 C 1039.30 396.05 1031.17 390.01 1023.46 391.63 Z" />
<path fill="#ffffff" opacity="1.00" d=" M 1073.80 391.92 C 1073.80 391.29 1073.80 390.67 1073.82 390.04 C 1075.81 390.05 1077.83 390.06 1079.85 390.10 C 1079.85 390.54 1079.86 391.42 1079.87 391.86 C 1077.84 391.89 1075.81 391.90 1073.80 391.92 Z" />
<path fill="#ffffff" opacity="1.00" d=" M 1086.97 390.10 C 1087.44 390.12 1088.37 390.16 1088.84 390.18 C 1091.42 395.62 1094.25 401.03 1096.22 406.71 L 1094.87 407.57 C 1092.24 401.74 1089.43 395.99 1086.97 390.10 Z" />
<path fill="#ffffff" opacity="1.00" d=" M 1135.23 390.19 C 1135.69 390.15 1136.61 390.07 1137.07 390.03 C 1132.93 399.80 1128.19 409.32 1123.86 419.01 C 1123.28 420.02 1122.53 422.42 1120.95 421.20 C 1117.62 415.17 1115.08 408.72 1112.03 402.54 C 1109.41 408.11 1106.83 413.69 1104.23 419.26 C 1103.82 420.37 1102.57 422.57 1101.28 420.97 C 1100.08 419.05 1099.18 416.96 1098.38 414.87 C 1100.53 412.56 1101.19 417.65 1102.34 418.94 C 1105.28 412.65 1108.05 406.27 1111.22 400.10 C 1111.62 400.09 1112.43 400.08 1112.83 400.08 C 1116.01 406.25 1118.75 412.64 1121.72 418.92 C 1126.40 409.43 1130.49 399.65 1135.23 390.19 Z" />
<path fill="#ffffff" opacity="1.00" d=" M 1139.15 403.87 C 1139.78 395.97 1147.08 389.38 1155.01 389.57 C 1162.91 389.40 1170.22 395.97 1170.81 403.86 C 1171.04 409.52 1170.85 415.18 1170.89 420.85 C 1170.45 420.87 1169.57 420.90 1169.14 420.91 C 1169.07 418.30 1169.06 415.69 1169.13 413.09 C 1165.75 418.95 1158.72 422.58 1151.99 421.12 C 1144.09 419.81 1138.13 411.82 1139.15 403.87 M 1152.51 391.63 C 1145.41 392.75 1140.01 399.93 1141.00 407.07 C 1141.66 414.34 1148.72 420.22 1156.00 419.51 C 1163.70 419.13 1170.08 411.54 1168.97 403.88 C 1168.26 396.08 1160.19 390.04 1152.51 391.63 Z" />
<path fill="#ffffff" opacity="1.00" d=" M 1178.09 390.11 C 1178.54 390.12 1179.44 390.13 1179.88 390.13 C 1179.91 400.39 1179.94 410.65 1179.86 420.92 C 1179.42 420.90 1178.52 420.86 1178.07 420.84 C 1178.06 410.59 1178.02 400.35 1178.09 390.11 Z" />
<path fill="#ffffff" opacity="1.00" d=" M 1192.58 405.04 C 1192.59 396.15 1201.14 388.54 1209.98 389.64 C 1218.29 390.21 1224.96 398.11 1224.45 406.39 C 1216.71 406.40 1208.98 406.45 1201.25 406.36 C 1201.25 405.93 1201.27 405.06 1201.27 404.63 C 1208.41 404.53 1215.55 404.65 1222.70 404.56 C 1222.03 396.90 1214.81 390.45 1207.04 391.49 C 1198.81 392.10 1192.56 400.95 1194.84 408.91 C 1196.25 415.23 1202.32 419.38 1208.58 419.77 C 1208.77 420.16 1209.15 420.93 1209.34 421.31 C 1200.36 422.22 1192.03 413.99 1192.58 405.04 Z" />
<path fill="#ffffff" opacity="1.00" d=" M 1049.20 398.40 C 1049.60 398.32 1050.42 398.17 1050.83 398.09 C 1050.97 405.70 1050.91 413.31 1050.86 420.91 C 1050.42 420.90 1049.52 420.86 1049.08 420.84 C 1049.13 413.36 1048.87 405.87 1049.20 398.40 Z" />
<path fill="#ffffff" opacity="1.00" d=" M 699.96 403.89 C 701.36 402.29 702.64 404.65 703.65 405.46 C 708.17 410.45 705.50 419.38 698.95 421.02 C 692.75 423.14 685.94 417.54 686.55 411.08 C 689.46 411.22 688.24 415.23 690.18 416.74 C 694.02 421.89 703.09 419.40 703.95 413.10 C 705.06 409.23 701.77 406.66 699.96 403.89 Z" />
<path fill="#ffffff" opacity="1.00" d=" M 1000.74 406.28 C 1000.06 405.48 997.65 403.68 1000.12 403.27 C 1006.42 406.69 1006.44 416.86 1000.00 420.15 C 993.69 424.16 984.66 418.44 985.59 411.01 C 987.86 410.92 987.32 413.53 988.13 414.88 C 989.76 419.48 996.17 421.01 999.91 417.98 C 1003.64 415.38 1004.21 409.33 1000.74 406.28 Z" />
<path fill="#ffffff" opacity="1.00" d=" M 923.09 416.07 C 923.54 416.06 924.42 416.03 924.86 416.02 C 924.88 416.76 924.91 418.23 924.92 418.97 C 925.70 419.09 927.24 419.32 928.01 419.44 C 927.40 421.71 924.87 420.74 923.13 420.93 C 923.09 419.30 923.08 417.68 923.09 416.07 Z" />
</g>
<g id="#8fa1b2ff">
<path fill="#8fa1b2" opacity="1.00" d=" M 931.32 140.07 C 931.17 138.20 932.46 136.75 933.77 135.62 C 936.80 135.36 939.86 135.30 942.91 135.30 C 942.49 144.36 942.87 153.43 942.71 162.50 C 940.04 162.50 937.39 162.49 934.74 162.49 C 933.43 161.21 931.22 160.15 931.36 158.02 C 931.19 152.04 931.26 146.05 931.32 140.07 Z" />
<path fill="#8fa1b2" opacity="1.00" d=" M 1005.05 135.27 C 1007.37 135.23 1009.69 135.55 1011.93 136.20 L 1012.83 136.44 L 1012.82 137.88 C 1012.64 143.44 1014.63 148.87 1013.87 154.46 C 1014.11 157.70 1013.42 160.90 1010.31 162.49 C 1008.54 162.49 1006.79 162.50 1005.05 162.52 C 1005.13 153.43 1005.17 144.35 1005.05 135.27 Z" />
</g>
<g id="#778da4ff">
<path fill="#778da4" opacity="1.00" d=" M 1002.28 135.33 C 1002.97 135.32 1004.36 135.28 1005.05 135.27 C 1005.17 144.35 1005.13 153.43 1005.05 162.52 C 1004.38 162.51 1003.02 162.48 1002.35 162.46 C 1002.30 153.42 1002.44 144.37 1002.28 135.33 Z" />
</g>
<g id="#768ca3ff">
<path fill="#768ca3" opacity="1.00" d=" M 1012.82 137.88 L 1012.90 136.93 C 1014.28 139.25 1014.27 141.95 1014.25 144.56 C 1032.99 144.50 1051.72 144.59 1070.46 144.51 C 1069.09 149.10 1070.06 153.84 1072.00 158.11 C 1071.13 157.09 1070.56 155.87 1070.15 154.62 C 1051.40 154.23 1032.63 154.55 1013.87 154.46 C 1014.63 148.87 1012.64 143.44 1012.82 137.88 Z" />
<path fill="#768ca3" opacity="1.00" d=" M 1105.24 144.64 C 1117.51 144.44 1129.80 144.56 1142.08 144.54 C 1145.09 144.21 1148.17 146.92 1147.55 150.06 C 1147.51 152.84 1144.56 154.70 1141.98 154.45 C 1129.75 154.38 1117.51 154.64 1105.28 154.28 C 1105.73 151.08 1105.73 147.83 1105.24 144.64 Z" />
</g>
<g id="#0776ffff">
<path fill="#0776ff" opacity="1.00" d=" M 780.71 138.40 C 788.95 138.19 797.20 138.28 805.44 138.36 C 805.36 209.71 805.42 281.07 805.41 352.43 C 840.45 352.40 875.49 352.41 910.53 352.42 C 910.48 359.40 910.52 366.38 910.50 373.35 C 867.24 373.30 823.99 373.40 780.73 373.30 C 780.74 295.00 780.78 216.70 780.71 138.40 Z" />
<path fill="#0776ff" opacity="1.00" d=" M 1101.84 138.25 C 1119.56 138.37 1137.27 138.22 1154.99 138.32 C 1166.12 138.52 1177.61 138.63 1188.07 142.95 C 1200.54 147.72 1210.86 157.59 1216.35 169.73 C 1221.20 180.41 1223.34 192.33 1222.50 204.04 C 1221.21 217.83 1215.19 231.47 1204.61 240.64 C 1199.35 245.63 1192.78 248.88 1185.92 251.07 C 1209.15 255.82 1228.15 276.46 1230.70 300.09 C 1232.40 318.74 1226.74 338.23 1214.43 352.47 C 1205.55 362.60 1193.21 369.57 1180.01 372.17 C 1167.06 373.80 1154.00 373.26 1140.99 373.34 C 1118.80 373.36 1096.61 373.31 1074.42 373.36 C 1074.37 302.75 1074.46 232.14 1074.38 161.53 C 1080.43 168.41 1091.51 169.46 1098.75 163.83 C 1098.62 189.70 1098.75 215.56 1098.69 241.43 C 1117.11 241.51 1135.54 241.46 1153.97 241.46 C 1160.24 241.26 1166.57 240.70 1172.65 239.08 C 1183.43 235.50 1191.82 226.35 1195.62 215.77 C 1199.95 202.96 1198.69 188.49 1192.69 176.43 C 1189.10 169.26 1182.26 164.25 1174.84 161.59 C 1167.59 158.76 1159.67 159.51 1152.07 159.28 C 1135.66 159.31 1119.25 159.24 1102.85 159.32 C 1103.74 157.68 1104.59 156.01 1105.28 154.28 C 1117.51 154.64 1129.75 154.38 1141.98 154.45 C 1144.56 154.70 1147.51 152.84 1147.55 150.06 C 1148.17 146.92 1145.09 144.21 1142.08 144.54 C 1129.80 144.56 1117.51 144.44 1105.24 144.64 C 1104.37 142.38 1103.23 140.23 1101.84 138.25 M 1098.69 262.50 C 1098.70 292.46 1098.71 322.41 1098.68 352.37 C 1120.11 352.45 1141.55 352.41 1162.99 352.39 C 1171.27 352.40 1180.04 351.81 1187.25 347.27 C 1197.05 341.58 1202.73 330.83 1205.12 320.05 C 1207.11 310.27 1207.34 299.73 1203.42 290.37 C 1199.76 281.80 1193.66 274.06 1185.43 269.50 C 1174.45 263.13 1161.39 262.36 1149.00 262.45 C 1132.23 262.49 1115.46 262.39 1098.69 262.50 Z" />
<path fill="#0776ff" opacity="1.00" d=" M 977.45 206.58 C 980.55 205.80 984.25 205.96 986.72 208.27 C 989.10 209.97 989.84 212.90 990.40 215.61 C 993.32 215.69 996.26 215.69 999.20 215.65 C 1014.20 245.84 1028.89 276.20 1043.75 306.46 C 1046.08 310.25 1042.00 314.75 1037.98 314.16 C 994.31 314.07 950.66 314.14 907.00 314.14 C 902.99 314.55 899.76 310.14 901.72 306.50 C 916.45 276.23 931.17 245.95 945.92 215.68 C 948.01 215.67 950.11 215.68 952.22 215.68 C 953.17 213.75 954.39 211.12 956.97 211.29 C 959.66 210.96 960.94 213.60 961.80 215.67 C 964.78 215.67 967.76 215.67 970.76 215.70 C 971.25 211.75 973.58 207.96 977.45 206.58 M 956.25 230.44 C 952.39 230.60 954.55 237.08 957.63 234.76 C 959.94 233.78 958.19 230.15 956.25 230.44 M 940.35 259.40 C 937.14 261.00 937.23 266.09 940.33 267.76 C 943.26 269.76 947.66 267.38 947.68 263.85 C 948.15 260.23 943.31 257.30 940.35 259.40 M 1006.06 268.82 C 1006.95 268.45 1007.86 268.09 1008.77 267.73 C 1008.76 266.55 1008.76 265.37 1008.78 264.20 C 1008.07 264.08 1006.67 263.85 1005.96 263.73 C 1003.40 264.82 1004.37 267.44 1006.06 268.82 M 988.35 273.52 C 985.16 274.44 982.51 277.03 981.25 280.07 C 978.97 285.84 982.85 292.95 988.96 294.12 C 995.54 295.83 1002.48 289.69 1001.79 282.98 C 1001.51 276.53 994.52 271.67 988.35 273.52 M 960.96 291.05 C 959.50 293.13 963.06 295.50 964.61 293.59 C 966.53 292.17 964.52 290.36 963.73 288.98 C 962.70 289.50 961.33 289.79 960.96 291.05 M 921.38 299.45 C 918.97 300.39 917.46 303.64 918.98 305.94 C 920.76 308.96 926.02 308.47 926.88 304.92 C 928.20 301.64 924.53 298.39 921.38 299.45 Z" />
</g>
<g id="#536a83ff">
<path fill="#536a83" opacity="1.00" d=" M 1082.48 138.68 C 1089.76 134.61 1099.88 140.69 1099.73 149.00 C 1100.38 155.88 1093.79 162.19 1086.98 161.55 C 1080.64 161.29 1075.38 155.31 1075.66 149.03 C 1075.93 144.73 1078.51 140.51 1082.48 138.68 Z" />
</g>
<g id="#2285feff">
<path fill="#2285fe" opacity="1.00" d=" M 964.30 208.07 C 964.40 205.79 968.64 205.76 968.58 208.12 C 968.59 208.66 968.62 209.73 968.64 210.27 C 967.98 210.57 966.68 211.16 966.03 211.46 C 965.22 210.50 963.66 209.55 964.30 208.07 Z" />
</g>
<g id="#3992fcff">
<path fill="#3992fc" opacity="1.00" d=" M 956.25 230.44 C 958.19 230.15 959.94 233.78 957.63 234.76 C 954.55 237.08 952.39 230.60 956.25 230.44 Z" />
</g>
<g id="#358ffdff">
<path fill="#358ffd" opacity="1.00" d=" M 940.35 259.40 C 943.31 257.30 948.15 260.23 947.68 263.85 C 947.66 267.38 943.26 269.76 940.33 267.76 C 937.23 266.09 937.14 261.00 940.35 259.40 Z" />
<path fill="#358ffd" opacity="1.00" d=" M 988.35 273.52 C 994.52 271.67 1001.51 276.53 1001.79 282.98 C 1002.48 289.69 995.54 295.83 988.96 294.12 C 982.85 292.95 978.97 285.84 981.25 280.07 C 982.51 277.03 985.16 274.44 988.35 273.52 Z" />
</g>
<g id="#3a93fdff">
<path fill="#3a93fd" opacity="1.00" d=" M 1006.06 268.82 C 1004.37 267.44 1003.40 264.82 1005.96 263.73 C 1006.67 263.85 1008.07 264.08 1008.78 264.20 C 1008.76 265.37 1008.76 266.55 1008.77 267.73 C 1007.86 268.09 1006.95 268.45 1006.06 268.82 Z" />
</g>
<g id="#3993fdff">
<path fill="#3993fd" opacity="1.00" d=" M 960.96 291.05 C 961.33 289.79 962.70 289.50 963.73 288.98 C 964.52 290.36 966.53 292.17 964.61 293.59 C 963.06 295.50 959.50 293.13 960.96 291.05 Z" />
</g>
<g id="#3690fdff">
<path fill="#3690fd" opacity="1.00" d=" M 921.38 299.45 C 924.53 298.39 928.20 301.64 926.88 304.92 C 926.02 308.47 920.76 308.96 918.98 305.94 C 917.46 303.64 918.97 300.39 921.38 299.45 Z" />
</g>
<g id="#fcfcfcfc">
<path fill="#fcfcfc" opacity="1.00" d=" M 830.63 376.76 C 831.07 376.70 831.97 376.58 832.42 376.52 C 832.30 391.25 832.62 406.01 832.26 420.73 L 830.68 421.20 C 830.45 406.39 830.53 391.57 830.63 376.76 Z" />
</g>
<g id="#fefefefe">
<path fill="#fefefe" opacity="1.00" d=" M 749.67 389.82 L 751.26 390.26 C 751.51 400.40 751.50 410.58 751.27 420.73 L 749.67 421.18 C 749.48 410.73 749.49 400.27 749.67 389.82 Z" />
</g>
<g id="#dededede">
<path fill="#dedede" opacity="0.87" d=" M 1169.00 390.08 C 1169.49 390.07 1170.49 390.05 1170.99 390.04 C 1170.99 391.68 1170.99 393.31 1171.00 394.95 C 1170.50 394.96 1169.50 394.96 1169.00 394.96 C 1168.98 393.33 1168.98 391.70 1169.00 390.08 Z" />
</g>
</svg>
