<?xml version="1.0" encoding="UTF-8" ?>
<!DOCTYPE svg PUBLIC "-//W3C//DTD SVG 1.1//EN" "http://www.w3.org/Graphics/SVG/1.1/DTD/svg11.dtd">
<svg width="1871pt" height="426pt" viewBox="0 0 1871 426" version="1.1" xmlns="http://www.w3.org/2000/svg">
<g id="#ffffffff">
<path fill="#ffffff" opacity="1.00" d=" M 122.21 29.24 C 147.20 23.42 173.79 27.52 196.91 38.21 C 210.54 44.46 223.12 52.86 234.51 62.59 C 253.46 46.32 276.09 33.69 300.77 28.85 C 322.22 24.30 344.89 26.75 365.19 34.89 C 407.88 52.22 439.40 95.64 440.22 142.04 C 441.53 170.23 435.66 198.79 422.70 223.91 C 406.58 255.68 382.12 282.18 356.51 306.56 C 322.37 338.22 285.02 366.22 246.83 392.80 C 243.74 394.77 240.95 397.49 237.24 398.23 C 233.53 399.25 229.51 398.02 226.48 395.80 C 190.86 371.15 155.94 345.33 123.49 316.59 C 102.12 297.26 81.47 276.83 64.48 253.46 C 55.46 240.96 47.43 227.67 41.42 213.45 C 33.07 194.12 28.86 173.06 28.63 152.02 C 28.55 140.79 29.03 129.44 31.79 118.50 C 42.25 75.16 78.35 38.56 122.21 29.24 M 90.82 71.82 C 72.42 86.72 58.38 107.94 54.84 131.61 C 52.25 155.07 54.62 179.39 63.84 201.26 C 72.99 223.71 87.51 243.52 103.58 261.48 C 111.76 270.57 120.20 279.46 129.31 287.63 C 161.95 318.22 198.01 344.87 234.48 370.67 C 237.11 368.68 239.83 366.81 242.52 364.90 C 229.65 351.71 222.71 333.38 221.85 315.11 C 202.55 311.75 185.40 299.41 175.22 282.80 C 167.01 269.78 163.02 254.28 163.18 238.94 C 163.20 208.80 163.16 178.66 163.20 148.53 C 160.71 146.43 158.46 143.95 157.14 140.95 C 152.68 131.67 156.27 119.41 165.26 114.29 C 170.91 111.30 177.97 111.22 183.53 114.49 C 189.31 117.48 192.52 123.86 193.29 130.13 C 194.03 137.48 190.59 145.01 184.56 149.29 C 184.61 179.84 184.41 210.40 184.54 240.95 C 184.56 257.59 192.24 274.33 205.62 284.40 C 213.12 290.20 222.47 293.71 231.99 293.75 C 244.06 294.16 256.06 289.08 264.56 280.59 C 275.30 270.44 281.32 255.70 281.27 240.97 C 281.36 210.41 281.27 179.86 281.32 149.30 C 279.75 147.94 278.17 146.57 276.82 144.99 C 269.46 136.02 271.67 120.82 281.76 114.80 C 288.81 110.26 298.76 111.45 304.61 117.42 C 313.21 125.67 312.40 141.44 302.62 148.44 C 302.65 178.62 302.62 208.79 302.64 238.97 C 302.84 256.68 297.36 274.60 286.50 288.68 C 276.14 302.62 260.33 312.43 243.15 315.22 C 243.89 329.21 250.30 342.64 260.42 352.27 C 298.43 323.83 336.29 294.48 367.84 258.77 C 383.39 240.89 397.45 221.26 406.02 199.02 C 414.49 177.83 416.60 154.46 414.15 131.89 C 410.48 106.97 395.30 84.65 375.37 69.68 C 358.73 57.26 337.74 50.52 316.93 52.13 C 290.03 53.88 265.62 68.21 246.09 86.04 C 242.62 89.92 237.57 93.17 232.15 91.95 C 226.14 90.86 222.86 85.21 218.19 81.90 C 198.13 64.81 172.95 51.74 146.05 51.98 C 126.01 51.73 106.39 59.42 90.82 71.82 Z" />
<path fill="#ffffff" opacity="1.00" d=" M 1237.60 52.80 C 1256.62 50.64 1276.90 52.41 1293.75 62.19 C 1312.77 72.43 1326.80 92.25 1328.29 114.01 C 1328.77 117.22 1326.34 120.60 1323.08 120.94 C 1318.73 121.20 1314.36 121.04 1310.02 121.04 C 1306.63 121.19 1303.07 118.98 1302.40 115.53 C 1300.11 106.85 1297.06 97.91 1290.64 91.35 C 1281.97 82.33 1269.40 77.96 1257.10 77.25 C 1243.97 76.34 1229.85 78.03 1218.95 85.99 C 1206.69 94.96 1200.23 110.05 1199.19 124.91 C 1198.26 140.91 1198.19 156.95 1198.87 172.96 C 1198.99 186.13 1202.30 199.75 1210.76 210.12 C 1218.16 219.77 1229.94 225.21 1241.87 226.45 C 1254.19 227.67 1267.19 226.94 1278.46 221.37 C 1285.78 217.92 1292.16 212.33 1296.14 205.24 C 1299.01 199.99 1300.89 194.28 1302.39 188.51 C 1303.06 185.08 1306.57 182.79 1309.96 183.00 C 1314.01 182.99 1318.06 182.96 1322.13 183.01 C 1325.76 182.78 1328.84 186.41 1328.29 189.97 C 1327.13 206.84 1318.40 222.74 1305.61 233.65 C 1294.40 243.04 1280.49 249.25 1265.96 251.05 C 1247.19 253.44 1227.20 251.82 1210.40 242.50 C 1194.20 233.96 1181.95 218.67 1176.64 201.20 C 1172.00 187.30 1172.44 172.49 1172.20 158.02 C 1172.14 146.68 1172.21 135.34 1172.75 124.01 C 1173.81 107.69 1179.16 91.31 1189.61 78.56 C 1201.41 64.10 1219.18 55.08 1237.60 52.80 Z" />
<path fill="#ffffff" opacity="1.00" d=" M 531.81 63.00 C 531.44 58.99 534.86 55.05 538.91 55.03 C 543.25 55.00 547.60 54.86 551.94 55.14 C 556.79 55.69 559.94 60.00 562.11 63.97 C 580.74 100.02 599.34 136.08 617.97 172.13 C 636.60 136.07 655.20 99.99 673.83 63.93 C 675.96 60.05 679.03 55.82 683.75 55.18 C 688.18 54.82 692.64 55.01 697.08 55.04 C 701.13 55.09 704.48 59.04 704.12 63.03 C 704.13 122.36 704.13 181.68 704.12 241.00 C 704.46 244.95 701.17 248.86 697.17 248.96 C 693.09 249.05 689.00 249.03 684.92 248.97 C 680.86 248.97 677.47 245.05 677.76 241.05 C 677.72 197.48 677.77 153.92 677.74 110.36 C 663.36 138.09 649.00 165.84 634.60 193.56 C 632.59 197.05 630.24 201.19 625.99 202.12 C 622.68 202.69 619.31 202.36 615.98 202.45 C 612.79 202.41 609.17 202.72 606.56 200.53 C 603.24 197.71 601.37 193.66 599.39 189.88 C 585.66 163.38 571.95 136.88 558.19 110.41 C 558.17 153.92 558.22 197.44 558.17 240.96 C 558.47 244.94 555.17 248.89 551.13 248.96 C 547.03 249.04 542.92 249.04 538.83 248.96 C 534.82 248.90 531.46 245.00 531.81 241.03 C 531.81 181.69 531.81 122.34 531.81 63.00 Z" />
<path fill="#ffffff" opacity="1.00" d=" M 750.81 63.04 C 750.36 58.58 754.53 54.50 758.97 55.00 C 795.36 55.02 831.75 54.97 868.14 55.02 C 871.91 54.93 875.38 58.29 875.45 62.06 C 875.56 65.70 875.56 69.34 875.44 72.98 C 875.36 77.24 871.13 80.51 867.00 80.06 C 837.06 80.07 807.12 80.06 777.18 80.06 C 777.19 99.37 777.19 118.68 777.18 138.00 C 805.49 138.02 833.79 137.96 862.10 138.03 C 865.83 137.96 869.25 141.30 869.33 145.03 C 869.43 148.68 869.43 152.35 869.32 156.01 C 869.26 159.11 866.87 161.88 863.96 162.74 C 861.67 163.22 859.33 163.04 857.03 163.07 C 830.41 163.05 803.80 163.07 777.18 163.06 C 777.19 183.37 777.19 203.69 777.19 224.00 C 808.16 224.01 839.13 223.98 870.11 224.01 C 873.92 223.82 877.50 227.11 877.67 230.93 C 877.82 234.63 877.82 238.34 877.67 242.04 C 877.52 245.91 873.89 249.17 870.04 249.03 C 833.03 249.10 796.02 249.06 759.01 249.05 C 754.58 249.48 750.38 245.49 750.81 241.01 C 750.81 181.69 750.81 122.37 750.81 63.04 Z" />
<path fill="#ffffff" opacity="1.00" d=" M 919.42 55.54 C 920.86 54.91 922.46 55.03 924.02 54.98 C 940.35 55.02 956.69 54.99 973.02 55.00 C 982.34 55.08 991.71 54.59 1000.96 56.06 C 1017.48 58.45 1033.71 65.49 1045.34 77.69 C 1057.77 90.55 1064.28 108.32 1065.09 126.03 C 1065.67 143.00 1065.63 159.99 1065.14 176.95 C 1064.57 192.48 1059.92 208.06 1050.59 220.60 C 1040.61 234.24 1025.15 243.24 1008.76 246.79 C 996.05 249.77 982.92 248.94 969.97 249.06 C 954.30 249.05 938.63 249.09 922.96 249.05 C 918.56 249.45 914.40 245.49 914.81 241.04 C 914.81 181.69 914.81 122.34 914.81 63.00 C 914.54 59.83 916.53 56.77 919.42 55.54 M 941.18 80.06 C 941.19 128.04 941.19 176.02 941.19 224.00 C 957.47 223.93 973.76 224.16 990.05 223.87 C 1003.74 223.54 1018.08 218.90 1027.20 208.23 C 1036.27 197.79 1038.70 183.42 1038.93 170.02 C 1039.15 156.65 1039.18 143.27 1038.79 129.90 C 1038.12 117.65 1034.78 104.93 1026.30 95.70 C 1016.70 84.99 1002.04 80.33 987.97 80.10 C 972.38 80.01 956.78 80.09 941.18 80.06 Z" />
<path fill="#ffffff" opacity="1.00" d=" M 1110.44 55.53 C 1114.87 54.42 1119.56 55.23 1124.10 55.00 C 1128.49 54.56 1132.49 58.61 1132.17 62.98 C 1132.22 120.65 1132.16 178.32 1132.19 235.99 C 1132.16 238.34 1132.31 240.70 1131.98 243.04 C 1131.31 246.64 1127.70 249.31 1124.06 249.04 C 1119.99 249.03 1115.91 249.25 1111.86 248.88 C 1108.25 248.24 1105.48 244.65 1105.81 240.99 C 1105.80 182.68 1105.83 124.36 1105.80 66.04 C 1105.32 62.03 1106.19 57.15 1110.44 55.53 Z" />
<path fill="#ffffff" opacity="1.00" d=" M 1364.81 63.04 C 1364.42 59.03 1367.82 55.07 1371.88 55.04 C 1375.95 54.96 1380.04 54.95 1384.12 55.04 C 1388.14 55.11 1391.44 59.01 1391.17 62.97 C 1391.22 116.65 1391.18 170.32 1391.19 224.00 C 1422.48 224.02 1453.78 223.97 1485.07 224.02 C 1488.84 223.87 1492.32 227.16 1492.49 230.92 C 1492.63 234.62 1492.62 238.34 1492.49 242.06 C 1492.35 246.27 1488.16 249.50 1484.06 249.06 C 1447.04 249.06 1410.03 249.08 1373.01 249.05 C 1368.58 249.47 1364.38 245.50 1364.81 241.02 C 1364.81 181.70 1364.81 122.37 1364.81 63.04 Z" />
<path fill="#ffffff" opacity="1.00" d=" M 1571.06 64.93 C 1573.02 60.39 1576.44 55.35 1581.89 55.09 C 1587.93 54.86 1593.99 55.07 1600.04 54.99 C 1602.94 54.94 1606.13 55.42 1608.31 57.53 C 1611.49 60.48 1613.30 64.51 1614.71 68.54 C 1636.85 125.93 1659.10 183.28 1681.20 240.68 C 1682.89 244.27 1679.97 248.86 1676.05 248.98 C 1671.33 249.09 1666.59 249.27 1661.91 248.75 C 1658.18 248.37 1655.71 245.08 1654.40 241.86 C 1649.60 229.61 1644.86 217.33 1640.07 205.06 C 1608.05 205.06 1576.03 205.06 1544.01 205.06 C 1539.56 216.51 1535.08 227.95 1530.66 239.41 C 1529.34 242.98 1527.55 247.18 1523.59 248.41 C 1518.47 249.53 1513.15 249.00 1507.96 248.97 C 1503.82 248.80 1501.07 243.84 1503.05 240.21 C 1525.70 181.77 1548.39 123.35 1571.06 64.93 M 1553.72 180.00 C 1579.27 180.00 1604.81 180.00 1630.36 180.00 C 1617.64 147.08 1604.91 114.17 1592.19 81.25 C 1579.36 114.16 1566.54 147.08 1553.72 180.00 Z" />
<path fill="#ffffff" opacity="1.00" d=" M 1709.81 62.99 C 1709.44 59.01 1712.82 55.09 1716.85 55.04 C 1734.87 54.94 1752.89 55.03 1770.92 55.00 C 1782.09 55.23 1793.33 54.38 1804.45 55.80 C 1821.84 57.97 1838.66 68.26 1846.63 84.15 C 1853.09 97.55 1854.66 114.16 1847.52 127.62 C 1843.80 135.48 1837.34 141.63 1830.12 146.29 C 1842.58 155.26 1853.35 168.28 1855.68 183.87 C 1858.48 201.01 1852.87 219.36 1840.59 231.71 C 1831.94 240.55 1820.21 246.13 1808.06 248.06 C 1801.10 249.22 1794.03 249.05 1787.02 249.06 C 1764.01 249.05 1741.00 249.08 1717.99 249.05 C 1713.57 249.46 1709.39 245.49 1709.81 241.04 C 1709.81 181.69 1709.81 122.34 1709.81 62.99 M 1736.19 80.06 C 1736.19 98.71 1736.19 117.35 1736.18 136.00 C 1754.13 135.97 1772.08 136.07 1790.02 135.95 C 1799.90 135.72 1810.71 134.24 1818.29 127.29 C 1825.49 120.73 1827.01 110.00 1825.09 100.85 C 1823.73 94.09 1819.17 88.19 1813.10 84.98 C 1804.84 80.60 1795.24 79.94 1786.07 80.06 C 1769.44 80.07 1752.81 80.06 1736.19 80.06 M 1736.18 161.06 C 1736.19 182.04 1736.19 203.02 1736.19 224.00 C 1754.47 224.00 1772.75 224.00 1791.04 223.99 C 1797.75 223.98 1804.61 223.33 1810.85 220.67 C 1818.04 217.84 1824.20 212.26 1827.37 205.17 C 1831.46 196.07 1830.59 185.07 1825.60 176.51 C 1822.10 170.56 1816.28 166.25 1809.88 163.88 C 1802.32 160.83 1794.03 161.00 1786.04 161.06 C 1769.42 161.06 1752.80 161.06 1736.18 161.06 Z" />
</g>
<g id="#6cbaebfe">
<path fill="#6cbaeb" opacity="1.00" d=" M 774.53 295.63 C 783.15 293.70 792.69 295.80 799.38 301.66 C 801.94 304.09 804.31 307.24 804.58 310.88 C 804.76 313.86 800.81 312.89 798.97 313.01 C 797.19 313.31 796.26 311.76 795.48 310.49 C 790.83 302.74 779.64 300.89 772.07 305.22 C 769.05 306.93 767.11 310.47 767.70 313.96 C 767.91 317.13 770.65 319.28 773.33 320.51 C 782.30 324.72 792.94 324.92 801.05 331.01 C 806.47 334.92 807.60 342.62 805.48 348.62 C 803.69 354.01 798.97 357.89 793.80 359.87 C 784.43 363.34 773.31 362.79 764.84 357.24 C 760.96 354.55 757.41 350.73 756.56 345.93 C 756.14 344.53 757.28 342.68 758.88 342.99 C 761.08 343.07 764.28 342.22 765.18 344.96 C 770.12 355.20 784.74 356.42 793.51 350.64 C 797.45 348.20 799.38 341.92 795.59 338.53 C 786.46 330.98 772.84 333.01 763.85 325.19 C 758.23 320.44 757.58 311.75 760.67 305.40 C 763.35 300.13 768.84 296.78 774.53 295.63 Z" />
<path fill="#6cbaeb" opacity="1.00" d=" M 873.26 295.21 C 883.14 293.79 894.42 297.65 899.38 306.77 C 904.10 314.66 902.81 324.15 903.01 332.92 C 903.16 340.04 901.89 347.62 897.24 353.27 C 890.96 361.25 879.59 363.53 870.08 361.19 C 862.72 359.61 856.37 354.18 853.68 347.15 C 850.76 339.80 851.54 331.75 851.49 324.02 C 851.39 317.94 852.05 311.56 855.36 306.30 C 859.09 299.98 866.06 296.05 873.26 295.21 M 874.13 303.18 C 869.20 303.78 864.61 306.85 862.46 311.36 C 859.90 316.54 860.45 322.47 860.26 328.07 C 860.47 334.15 859.75 340.68 862.77 346.25 C 868.34 356.58 885.71 356.77 891.50 346.56 C 894.68 340.94 894.05 334.22 894.27 328.00 C 894.05 321.70 894.59 314.75 890.79 309.32 C 887.19 304.01 880.19 302.25 874.13 303.18 Z" />
<path fill="#6cbaeb" opacity="1.00" d=" M 515.99 299.91 C 515.89 298.48 516.13 296.30 517.92 296.10 C 525.61 295.84 533.32 296.10 541.01 295.99 C 546.57 295.72 552.47 296.53 557.04 299.97 C 563.40 304.47 565.81 313.95 561.87 320.78 C 560.62 323.12 558.49 324.77 556.41 326.32 C 562.06 330.22 566.06 336.92 565.07 343.94 C 564.37 353.07 556.23 360.45 547.20 360.93 C 537.77 361.09 528.33 360.98 518.90 360.98 C 517.18 361.31 515.82 359.70 516.02 358.07 C 515.97 338.68 516.03 319.29 515.99 299.91 M 524.87 304.00 C 524.86 310.33 524.86 316.66 524.87 323.00 C 530.91 322.99 536.95 323.00 542.99 323.01 C 546.42 322.95 550.26 322.38 552.74 319.77 C 555.37 316.95 555.57 312.46 554.04 309.06 C 552.23 305.37 547.86 304.21 544.08 304.01 C 537.67 303.96 531.27 304.02 524.87 304.00 M 524.87 331.00 C 524.86 338.33 524.86 345.66 524.87 353.00 C 531.23 352.99 537.60 353.01 543.97 353.01 C 548.34 353.14 553.02 351.15 555.18 347.19 C 556.78 343.98 556.78 340.05 555.16 336.84 C 553.16 332.78 548.33 330.83 543.99 330.99 C 537.62 330.99 531.24 331.01 524.87 331.00 Z" />
<path fill="#6cbaeb" opacity="1.00" d=" M 604.49 297.87 C 604.86 297.40 605.60 296.45 605.96 295.98 C 608.90 296.26 613.19 294.86 614.72 298.32 C 620.44 308.16 626.14 318.02 631.86 327.87 C 637.60 317.94 643.36 308.03 649.16 298.14 C 650.81 294.76 655.06 296.36 658.02 295.94 C 658.60 297.07 659.57 298.26 658.48 299.43 C 651.21 311.77 643.77 324.03 636.57 336.41 C 635.64 344.12 636.88 352.08 635.98 359.82 C 634.00 361.68 629.80 361.71 627.84 359.85 C 626.94 352.16 628.08 344.27 627.30 336.58 C 619.83 323.60 611.90 310.89 604.49 297.87 Z" />
<path fill="#6cbaeb" opacity="1.00" d=" M 952.02 298.94 C 951.81 297.28 953.19 295.67 954.94 296.02 C 967.28 296.03 979.63 295.89 991.98 296.09 C 994.66 296.61 994.01 300.01 993.87 302.00 C 993.83 303.38 992.26 304.07 991.08 303.98 C 981.01 304.04 970.93 303.97 960.87 304.00 C 960.86 311.33 960.86 318.66 960.87 326.00 C 970.27 326.02 979.68 325.96 989.09 326.02 C 993.47 325.48 993.48 334.49 989.11 333.98 C 979.69 334.04 970.28 333.97 960.87 334.00 C 960.85 341.68 960.89 349.35 960.86 357.03 C 960.88 358.52 960.81 360.49 959.01 360.92 C 956.52 361.06 951.82 361.93 952.02 358.08 C 951.99 338.37 951.99 318.65 952.02 298.94 Z" />
<path fill="#6cbaeb" opacity="1.00" d=" M 1036.98 303.91 C 1033.95 302.84 1034.07 295.86 1037.89 296.01 C 1052.28 295.99 1066.68 295.98 1081.07 296.02 C 1082.17 295.92 1083.77 296.72 1083.69 298.01 C 1083.61 300.00 1084.57 303.10 1082.03 303.91 C 1075.98 304.15 1069.92 303.92 1063.87 304.00 C 1063.85 322.01 1063.89 340.02 1063.85 358.03 C 1064.02 359.60 1062.78 361.27 1061.08 361.01 C 1059.05 360.95 1055.62 361.71 1055.09 358.97 C 1054.87 340.65 1055.06 322.32 1055.00 304.00 C 1048.99 303.92 1042.98 304.15 1036.98 303.91 Z" />
<path fill="#6cbaeb" opacity="1.00" d=" M 1128.98 299.99 C 1128.88 298.54 1129.11 296.23 1130.98 296.09 C 1133.37 295.86 1138.07 295.19 1137.81 298.91 C 1137.94 316.94 1137.82 334.97 1137.87 353.00 C 1148.26 353.02 1158.65 352.96 1169.04 353.02 C 1173.15 352.70 1173.19 361.17 1169.12 360.99 C 1156.71 361.01 1144.30 361.02 1131.89 360.98 C 1130.19 361.31 1128.83 359.72 1129.02 358.12 C 1128.96 338.74 1129.03 319.36 1128.98 299.99 Z" />
<path fill="#6cbaeb" opacity="1.00" d=" M 1233.84 298.78 C 1235.66 294.30 1241.28 296.52 1244.97 295.97 C 1246.12 297.11 1247.41 298.25 1247.91 299.88 C 1255.38 319.27 1262.98 338.62 1270.38 358.04 C 1271.55 362.26 1265.15 361.27 1262.76 360.44 C 1259.96 356.03 1258.81 350.77 1256.70 346.01 C 1245.93 346.01 1235.17 345.96 1224.41 346.04 C 1222.61 350.43 1221.22 354.98 1219.22 359.28 C 1217.89 361.99 1214.30 360.83 1211.92 360.94 C 1211.49 360.52 1210.62 359.69 1210.19 359.27 C 1218.17 339.15 1225.80 318.88 1233.84 298.78 M 1240.57 304.84 C 1236.33 315.91 1231.98 326.95 1227.68 338.00 C 1236.27 338.00 1244.86 338.00 1253.46 337.99 C 1249.12 326.96 1244.99 315.84 1240.57 304.84 Z" />
<path fill="#6cbaeb" opacity="1.00" d=" M 1315.02 298.86 C 1314.84 297.22 1316.22 295.68 1317.93 296.02 C 1326.62 295.98 1335.32 295.99 1344.02 296.01 C 1352.30 296.05 1360.99 301.49 1362.43 310.07 C 1363.98 316.36 1360.88 323.03 1355.41 326.33 C 1361.07 330.22 1365.08 336.95 1364.06 343.99 C 1363.34 353.07 1355.25 360.42 1346.26 360.92 C 1336.81 361.09 1327.36 360.98 1317.92 360.98 C 1316.17 361.32 1314.81 359.70 1315.02 358.06 C 1314.99 338.33 1314.98 318.59 1315.02 298.86 M 1323.87 304.00 C 1323.86 310.33 1323.86 316.66 1323.87 323.00 C 1330.26 322.97 1336.67 323.04 1343.07 322.99 C 1346.16 322.79 1349.55 322.13 1351.76 319.75 C 1354.38 316.91 1354.57 312.40 1353.01 309.01 C 1351.19 305.38 1346.89 304.23 1343.16 304.02 C 1336.72 303.95 1330.29 304.03 1323.87 304.00 M 1323.87 331.00 C 1323.86 338.33 1323.86 345.67 1323.87 353.00 C 1330.26 352.99 1336.66 353.01 1343.06 353.01 C 1347.17 353.10 1351.54 351.34 1353.82 347.79 C 1356.30 343.71 1355.78 338.02 1352.54 334.51 C 1350.02 332.08 1346.47 330.85 1343.01 330.99 C 1336.62 331.00 1330.24 331.00 1323.87 331.00 Z" />
</g>
</svg>
