<svg width="702" height="984" xmlns="http://www.w3.org/2000/svg">
 <g>
  <title>background</title>
  <rect fill="none" id="canvas_background" height="602" width="802" y="-1" x="-1"/>
 </g>

 <g>
  <title>Layer 1</title>
  <g id="#cd3f33ff">
   <path id="svg_1" d="m0,0l358,0l0.78,0.37c-58.77,133.78 -117.17,267.72 -175.81,401.56c-29.45,67.35 -58.95,134.69 -88.38,202.05c-31.6,71.99 -62.99,144.06 -94.59,216.04l0,-820.02z" fill="#e3f7ec"/>
  </g>
  <g id="#ffffffff">
   <path id="svg_2" d="m358,0l344,0l0,982.74c-43.98,0.53 -87.99,0.06 -131.98,0.22c-8.57,-0.21 -17.2,0.4 -25.72,-0.32c-37.79,-31.46 -75.22,-63.38 -112.89,-94.98c-90.95,-76.72 -181.95,-153.36 -272.91,-230.06c-21.36,-17.81 -42.36,-36.05 -63.91,-53.62c29.43,-67.36 58.93,-134.7 88.38,-202.05c58.64,-133.84 117.04,-267.78 175.81,-401.56l-0.78,-0.37z" fill="#ffffff"/>
  </g>
  <g id="#d8dcdfff">
   <path id="svg_3" d="m0,820.02c31.6,-71.98 62.99,-144.05 94.59,-216.04c21.55,17.57 42.55,35.81 63.91,53.62c90.96,76.7 181.96,153.34 272.91,230.06c37.67,31.6 75.1,63.52 112.89,94.98c8.52,0.72 17.15,0.11 25.72,0.32c43.99,-0.16 88,0.31 131.98,-0.22l0,1.26l-702,0l0,-163.98z" fill="#e8eef2"/>
  </g>
 </g>
</svg>