<?xml version="1.0" encoding="UTF-8" ?>
<!DOCTYPE svg PUBLIC "-//W3C//DTD SVG 1.1//EN" "http://www.w3.org/Graphics/SVG/1.1/DTD/svg11.dtd">
<svg width="702pt" height="984pt" viewBox="0 0 702 984" version="1.1" xmlns="http://www.w3.org/2000/svg">
<g id="#cd3f33ff">
<path fill="#cd3f33" opacity="1.00" d=" M 0.00 0.00 L 358.00 0.00 L 358.78 0.37 C 300.01 134.15 241.61 268.09 182.97 401.93 C 153.52 469.28 124.02 536.62 94.59 603.98 C 62.99 675.97 31.60 748.04 0.00 820.02 L 0.00 0.00 Z" />
</g>
<g id="#ffffffff">
<path fill="#ffffff" opacity="1.00" d=" M 358.00 0.00 L 702.00 0.00 L 702.00 982.74 C 658.02 983.27 614.01 982.80 570.02 982.96 C 561.45 982.75 552.82 983.36 544.30 982.64 C 506.51 951.18 469.08 919.26 431.41 887.66 C 340.46 810.94 249.46 734.30 158.50 657.60 C 137.14 639.79 116.14 621.55 94.59 603.98 C 124.02 536.62 153.52 469.28 182.97 401.93 C 241.61 268.09 300.01 134.15 358.78 0.37 L 358.00 0.00 Z" />
</g>
<g id="#d8dcdfff">
<path fill="#d8dcdf" opacity="1.00" d=" M 0.00 820.02 C 31.60 748.04 62.99 675.97 94.59 603.98 C 116.14 621.55 137.14 639.79 158.50 657.60 C 249.46 734.30 340.46 810.94 431.41 887.66 C 469.08 919.26 506.51 951.18 544.30 982.64 C 552.82 983.36 561.45 982.75 570.02 982.96 C 614.01 982.80 658.02 983.27 702.00 982.74 L 702.00 984.00 L 0.00 984.00 L 0.00 820.02 Z" />
</g>
</svg>
