<?xml version="1.0" encoding="UTF-8" ?>
<!DOCTYPE svg PUBLIC "-//W3C//DTD SVG 1.1//EN" "http://www.w3.org/Graphics/SVG/1.1/DTD/svg11.dtd">
<svg width="1146pt" height="886pt" viewBox="0 0 1146 886" version="1.1" xmlns="http://www.w3.org/2000/svg">
<g id="#00134aff">
<path fill="#00134a" opacity="1.00" d=" M 0.00 0.00 L 533.66 0.00 C 577.58 63.61 620.88 127.64 664.56 191.42 C 697.99 240.34 731.36 289.31 764.82 338.21 C 655.88 338.21 546.94 338.37 437.99 338.33 C 292.00 338.42 146.00 338.03 0.00 338.35 L 0.00 0.00 Z" />
<path fill="#00134a" opacity="1.00" d=" M 40.82 613.34 C 40.88 611.77 41.60 611.09 43.00 611.29 C 248.71 611.27 454.43 611.30 660.14 611.27 C 661.47 611.08 662.42 612.09 663.45 612.75 C 662.03 613.35 660.53 613.98 658.96 613.69 C 652.29 612.88 645.61 614.08 638.94 613.40 C 624.94 613.69 610.92 613.18 596.93 613.69 C 586.98 612.94 577.02 614.04 567.08 613.42 C 538.72 614.01 510.35 612.86 481.99 613.75 C 475.99 612.96 470.00 614.10 464.01 613.44 C 407.17 613.55 350.36 613.42 293.54 613.53 C 287.02 612.89 280.50 614.12 273.99 613.48 C 196.24 613.37 118.53 613.69 40.82 613.34 Z" />
</g>
<g id="#c10400ff">
<path fill="#c10400" opacity="1.00" d=" M 533.66 0.00 L 1146.00 0.00 L 1146.00 534.00 C 1113.95 534.14 1081.90 533.88 1049.85 534.07 C 1078.22 493.00 1106.96 452.18 1135.38 411.14 C 1028.54 410.97 921.69 410.91 814.85 411.09 L 814.58 410.71 C 797.89 386.61 781.47 362.33 764.82 338.21 C 731.36 289.31 697.99 240.34 664.56 191.42 C 620.88 127.64 577.58 63.61 533.66 0.00 Z" />
</g>
<g id="#fcfbfcff">
<path fill="#fcfbfc" opacity="1.00" d=" M 0.00 338.35 C 146.00 338.03 292.00 338.42 437.99 338.33 C 546.94 338.37 655.88 338.21 764.82 338.21 C 781.47 362.33 797.89 386.61 814.58 410.71 C 811.39 416.90 806.68 422.10 803.02 428.01 C 706.70 566.33 610.32 704.61 513.91 842.87 C 503.93 857.31 494.08 871.86 483.67 886.00 L 0.00 886.00 L 0.00 338.35 M 40.82 613.34 C 118.53 613.69 196.24 613.37 273.99 613.48 C 280.50 614.12 287.02 612.89 293.54 613.53 C 350.36 613.42 407.17 613.55 464.01 613.44 C 470.00 614.10 475.99 612.96 481.99 613.75 C 510.35 612.86 538.72 614.01 567.08 613.42 C 577.02 614.04 586.98 612.94 596.93 613.69 C 610.92 613.18 624.94 613.69 638.94 613.40 C 645.61 614.08 652.29 612.88 658.96 613.69 C 660.53 613.98 662.03 613.35 663.45 612.75 C 662.42 612.09 661.47 611.08 660.14 611.27 C 454.43 611.30 248.71 611.27 43.00 611.29 C 41.60 611.09 40.88 611.77 40.82 613.34 Z" />
<path fill="#fcfbfc" opacity="1.00" d=" M 1049.26 535.36 C 1052.80 534.71 1056.43 535.02 1060.01 534.98 C 1088.67 534.98 1117.34 535.00 1146.00 534.98 L 1146.00 886.00 L 804.70 886.00 C 884.55 771.40 964.41 656.80 1044.28 542.22 C 1045.91 539.92 1047.15 537.28 1049.26 535.36 Z" />
</g>
<g id="#f6f6f6ff">
<path fill="#f6f6f6" opacity="1.00" d=" M 814.58 410.71 L 814.85 411.09 C 842.93 452.07 870.76 493.22 899.15 533.99 C 949.38 534.25 999.62 534.12 1049.85 534.07 C 1081.90 533.88 1113.95 534.14 1146.00 534.00 L 1146.00 534.98 C 1117.34 535.00 1088.67 534.98 1060.01 534.98 C 1056.43 535.02 1052.80 534.71 1049.26 535.36 C 1047.15 537.28 1045.91 539.92 1044.28 542.22 C 964.41 656.80 884.55 771.40 804.70 886.00 L 483.67 886.00 C 494.08 871.86 503.93 857.31 513.91 842.87 C 610.32 704.61 706.70 566.33 803.02 428.01 C 806.68 422.10 811.39 416.90 814.58 410.71 Z" />
</g>
<g id="#e7d8dfff">
<path fill="#e7d8df" opacity="1.00" d=" M 814.85 411.09 C 921.69 410.91 1028.54 410.97 1135.38 411.14 C 1106.96 452.18 1078.22 493.00 1049.85 534.07 C 999.62 534.12 949.38 534.25 899.15 533.99 C 870.76 493.22 842.93 452.07 814.85 411.09 Z" />
</g>
</svg>
